<svg xmlns="http://www.w3.org/2000/svg" width="433.334" height="417.332" viewBox="0 0 11465 11042" shape-rendering="geometricPrecision" text-rendering="geometricPrecision" image-rendering="optimizeQuality" fill-rule="evenodd" clip-rule="evenodd"><path fill="none" d="M0 0h11465v11042H0z"/><path d="M7600 11046H164V9616l3524-3777c508-585 871-1075 1085-1479 215-401 322-774 322-1119 0-457-125-833-370-1126-248-291-598-437-1052-437-503 0-886 171-1149 513-260 340-391 797-391 1364H8l-15-43c-26-983 296-1816 968-2495C1633 335 2537-4 3673-4c1124 0 2005 291 2646 876 641 582 960 1361 960 2334 0 659-181 1264-541 1821-363 557-960 1287-1793 2189L3007 9333l15 38h4579v1675zm3874 0H9291V9131h2183v1915z" fill="#ffb600" fill-rule="nonzero"/></svg>