<svg xmlns="http://www.w3.org/2000/svg" width="433.334" height="417.332" viewBox="0 0 11465 11042" shape-rendering="geometricPrecision" text-rendering="geometricPrecision" image-rendering="optimizeQuality" fill-rule="evenodd" clip-rule="evenodd"><path fill="none" d="M0 0h11465v11042H0z"/><path d="M2393 4606h1228c518 0 901-133 1152-403 250-267 373-639 373-1117 0-430-123-777-373-1039-250-259-610-390-1085-390-409 0-753 118-1032 355-281 234-419 546-419 928H120l-15-45c-31-840 296-1532 981-2078C1768 271 2616-1 3629-1c1126 0 2025 264 2697 795s1006 1288 1006 2272c0 465-151 911-449 1331-299 420-710 747-1233 984 603 211 1062 536 1379 974 317 435 475 946 475 1525 0 984-363 1756-1088 2320-725 561-1655 843-2786 843-1014 0-1882-264-2607-792S-55 8978-29 8014l15-45h2117c0 413 151 755 449 1021 299 269 677 403 1136 403 503 0 901-138 1193-413 294-274 439-649 439-1120 0-566-143-981-432-1243-286-264-707-395-1267-395H2393V4607zm9104 6279H9314V8998h2183v1887z" fill="#ffb600" fill-rule="nonzero"/></svg>